<mxfile host="app.diagrams.net" modified="2023-12-04T13:30:36.494Z" agent="Mozilla/5.0 (Windows NT 10.0; Win64; x64; rv:109.0) Gecko/20100101 Firefox/119.0" etag="Hy6M6HBwpIpixswmpEjJ" version="22.1.5" type="device">
  <diagram name="Page-1" id="2YBvvXClWsGukQMizWep">
    <mxGraphModel dx="1687" dy="920" grid="1" gridSize="10" guides="1" tooltips="1" connect="1" arrows="1" fold="1" page="1" pageScale="1" pageWidth="1500" pageHeight="1100" math="0" shadow="0">
      <root>
        <mxCell id="0" />
        <mxCell id="1" parent="0" />
        <mxCell id="aM9ryv3xv72pqoxQDRHE-1" value="User" style="shape=umlLifeline;perimeter=lifelinePerimeter;whiteSpace=wrap;html=1;container=0;dropTarget=0;collapsible=0;recursiveResize=0;outlineConnect=0;portConstraint=eastwest;newEdgeStyle={&quot;edgeStyle&quot;:&quot;elbowEdgeStyle&quot;,&quot;elbow&quot;:&quot;vertical&quot;,&quot;curved&quot;:0,&quot;rounded&quot;:0};" parent="1" vertex="1">
          <mxGeometry x="20" y="40" width="100" height="640" as="geometry" />
        </mxCell>
        <mxCell id="2wh-ZIs0cIpEIXvG1whk-68" value="" style="html=1;points=[[0,0,0,0,5],[0,1,0,0,-5],[1,0,0,0,5],[1,1,0,0,-5]];perimeter=orthogonalPerimeter;outlineConnect=0;targetShapes=umlLifeline;portConstraint=eastwest;newEdgeStyle={&quot;curved&quot;:0,&quot;rounded&quot;:0};fillColor=#f5f5f5;fontColor=#333333;strokeColor=#666666;" vertex="1" parent="aM9ryv3xv72pqoxQDRHE-1">
          <mxGeometry x="45" y="70" width="10" height="550" as="geometry" />
        </mxCell>
        <mxCell id="aM9ryv3xv72pqoxQDRHE-5" value="Export" style="shape=umlLifeline;perimeter=lifelinePerimeter;whiteSpace=wrap;html=1;container=0;dropTarget=0;collapsible=0;recursiveResize=0;outlineConnect=0;portConstraint=eastwest;newEdgeStyle={&quot;edgeStyle&quot;:&quot;elbowEdgeStyle&quot;,&quot;elbow&quot;:&quot;vertical&quot;,&quot;curved&quot;:0,&quot;rounded&quot;:0};fillColor=default;" parent="1" vertex="1">
          <mxGeometry x="1220" y="40" width="100" height="640" as="geometry" />
        </mxCell>
        <mxCell id="2wh-ZIs0cIpEIXvG1whk-62" value="" style="html=1;points=[[0,0,0,0,5],[0,1,0,0,-5],[1,0,0,0,5],[1,1,0,0,-5]];perimeter=orthogonalPerimeter;outlineConnect=0;targetShapes=umlLifeline;portConstraint=eastwest;newEdgeStyle={&quot;curved&quot;:0,&quot;rounded&quot;:0};fillColor=#f5f5f5;strokeColor=#666666;fontColor=#333333;" vertex="1" parent="aM9ryv3xv72pqoxQDRHE-5">
          <mxGeometry x="45" y="545" width="10" height="63" as="geometry" />
        </mxCell>
        <mxCell id="r2afQJVxHl89gDdbdh9p-2" value="Interface" style="shape=umlLifeline;perimeter=lifelinePerimeter;whiteSpace=wrap;html=1;container=0;dropTarget=0;collapsible=0;recursiveResize=0;outlineConnect=0;portConstraint=eastwest;newEdgeStyle={&quot;edgeStyle&quot;:&quot;elbowEdgeStyle&quot;,&quot;elbow&quot;:&quot;vertical&quot;,&quot;curved&quot;:0,&quot;rounded&quot;:0};" parent="1" vertex="1">
          <mxGeometry x="220" y="40" width="100" height="640" as="geometry" />
        </mxCell>
        <mxCell id="2wh-ZIs0cIpEIXvG1whk-69" value="" style="html=1;points=[[0,0,0,0,5],[0,1,0,0,-5],[1,0,0,0,5],[1,1,0,0,-5]];perimeter=orthogonalPerimeter;outlineConnect=0;targetShapes=umlLifeline;portConstraint=eastwest;newEdgeStyle={&quot;curved&quot;:0,&quot;rounded&quot;:0};fillColor=#f5f5f5;fontColor=#333333;strokeColor=#666666;" vertex="1" parent="r2afQJVxHl89gDdbdh9p-2">
          <mxGeometry x="45" y="70" width="10" height="550" as="geometry" />
        </mxCell>
        <mxCell id="r2afQJVxHl89gDdbdh9p-3" value="Flowchart" style="shape=umlLifeline;perimeter=lifelinePerimeter;whiteSpace=wrap;html=1;container=0;dropTarget=0;collapsible=0;recursiveResize=0;outlineConnect=0;portConstraint=eastwest;newEdgeStyle={&quot;edgeStyle&quot;:&quot;elbowEdgeStyle&quot;,&quot;elbow&quot;:&quot;vertical&quot;,&quot;curved&quot;:0,&quot;rounded&quot;:0};" parent="1" vertex="1">
          <mxGeometry x="420" y="40" width="100" height="640" as="geometry" />
        </mxCell>
        <mxCell id="2wh-ZIs0cIpEIXvG1whk-70" value="" style="html=1;points=[[0,0,0,0,5],[0,1,0,0,-5],[1,0,0,0,5],[1,1,0,0,-5]];perimeter=orthogonalPerimeter;outlineConnect=0;targetShapes=umlLifeline;portConstraint=eastwest;newEdgeStyle={&quot;curved&quot;:0,&quot;rounded&quot;:0};fillColor=#f5f5f5;fontColor=#333333;strokeColor=#666666;" vertex="1" parent="r2afQJVxHl89gDdbdh9p-3">
          <mxGeometry x="45" y="108" width="10" height="97" as="geometry" />
        </mxCell>
        <mxCell id="r2afQJVxHl89gDdbdh9p-4" value="CodeAlgo" style="shape=umlLifeline;perimeter=lifelinePerimeter;whiteSpace=wrap;html=1;container=0;dropTarget=0;collapsible=0;recursiveResize=0;outlineConnect=0;portConstraint=eastwest;newEdgeStyle={&quot;edgeStyle&quot;:&quot;elbowEdgeStyle&quot;,&quot;elbow&quot;:&quot;vertical&quot;,&quot;curved&quot;:0,&quot;rounded&quot;:0};" parent="1" vertex="1">
          <mxGeometry x="620" y="40" width="100" height="640" as="geometry" />
        </mxCell>
        <mxCell id="2wh-ZIs0cIpEIXvG1whk-66" value="" style="html=1;points=[[0,0,0,0,5],[0,1,0,0,-5],[1,0,0,0,5],[1,1,0,0,-5]];perimeter=orthogonalPerimeter;outlineConnect=0;targetShapes=umlLifeline;portConstraint=eastwest;newEdgeStyle={&quot;curved&quot;:0,&quot;rounded&quot;:0};fillColor=#f5f5f5;fontColor=#333333;strokeColor=#666666;" vertex="1" parent="r2afQJVxHl89gDdbdh9p-4">
          <mxGeometry x="44" y="223" width="10" height="56" as="geometry" />
        </mxCell>
        <mxCell id="2wh-ZIs0cIpEIXvG1whk-67" value="" style="html=1;points=[[0,0,0,0,5],[0,1,0,0,-5],[1,0,0,0,5],[1,1,0,0,-5]];perimeter=orthogonalPerimeter;outlineConnect=0;targetShapes=umlLifeline;portConstraint=eastwest;newEdgeStyle={&quot;curved&quot;:0,&quot;rounded&quot;:0};fillColor=#f5f5f5;fontColor=#333333;strokeColor=#666666;" vertex="1" parent="r2afQJVxHl89gDdbdh9p-4">
          <mxGeometry x="45" y="294" width="10" height="46" as="geometry" />
        </mxCell>
        <mxCell id="2wh-ZIs0cIpEIXvG1whk-65" value="" style="html=1;points=[[0,0,0,0,5],[0,1,0,0,-5],[1,0,0,0,5],[1,1,0,0,-5]];perimeter=orthogonalPerimeter;outlineConnect=0;targetShapes=umlLifeline;portConstraint=eastwest;newEdgeStyle={&quot;curved&quot;:0,&quot;rounded&quot;:0};fillColor=#f5f5f5;fontColor=#333333;strokeColor=#666666;" vertex="1" parent="r2afQJVxHl89gDdbdh9p-4">
          <mxGeometry x="45" y="370" width="10" height="40" as="geometry" />
        </mxCell>
        <mxCell id="r2afQJVxHl89gDdbdh9p-5" value="Execution" style="shape=umlLifeline;perimeter=lifelinePerimeter;whiteSpace=wrap;html=1;container=0;dropTarget=0;collapsible=0;recursiveResize=0;outlineConnect=0;portConstraint=eastwest;newEdgeStyle={&quot;edgeStyle&quot;:&quot;elbowEdgeStyle&quot;,&quot;elbow&quot;:&quot;vertical&quot;,&quot;curved&quot;:0,&quot;rounded&quot;:0};" parent="1" vertex="1">
          <mxGeometry x="820" y="40" width="100" height="640" as="geometry" />
        </mxCell>
        <mxCell id="2wh-ZIs0cIpEIXvG1whk-64" value="" style="html=1;points=[[0,0,0,0,5],[0,1,0,0,-5],[1,0,0,0,5],[1,1,0,0,-5]];perimeter=orthogonalPerimeter;outlineConnect=0;targetShapes=umlLifeline;portConstraint=eastwest;newEdgeStyle={&quot;curved&quot;:0,&quot;rounded&quot;:0};fillColor=#f5f5f5;fontColor=#333333;strokeColor=#666666;" vertex="1" parent="r2afQJVxHl89gDdbdh9p-5">
          <mxGeometry x="45" y="447" width="10" height="53" as="geometry" />
        </mxCell>
        <mxCell id="r2afQJVxHl89gDdbdh9p-6" value="MemoryMap" style="shape=umlLifeline;perimeter=lifelinePerimeter;whiteSpace=wrap;html=1;container=0;dropTarget=0;collapsible=0;recursiveResize=0;outlineConnect=0;portConstraint=eastwest;newEdgeStyle={&quot;edgeStyle&quot;:&quot;elbowEdgeStyle&quot;,&quot;elbow&quot;:&quot;vertical&quot;,&quot;curved&quot;:0,&quot;rounded&quot;:0};" parent="1" vertex="1">
          <mxGeometry x="1020" y="40" width="100" height="640" as="geometry" />
        </mxCell>
        <mxCell id="2wh-ZIs0cIpEIXvG1whk-63" value="" style="html=1;points=[[0,0,0,0,5],[0,1,0,0,-5],[1,0,0,0,5],[1,1,0,0,-5]];perimeter=orthogonalPerimeter;outlineConnect=0;targetShapes=umlLifeline;portConstraint=eastwest;newEdgeStyle={&quot;curved&quot;:0,&quot;rounded&quot;:0};fillColor=#f5f5f5;fontColor=#333333;strokeColor=#666666;" vertex="1" parent="r2afQJVxHl89gDdbdh9p-6">
          <mxGeometry x="45" y="447" width="10" height="51" as="geometry" />
        </mxCell>
        <mxCell id="r2afQJVxHl89gDdbdh9p-7" value="" style="endArrow=block;html=1;rounded=0;endFill=1;" parent="1" edge="1" source="2wh-ZIs0cIpEIXvG1whk-68">
          <mxGeometry width="50" height="50" relative="1" as="geometry">
            <mxPoint x="80" y="120" as="sourcePoint" />
            <mxPoint x="264.5000000000001" y="121" as="targetPoint" />
          </mxGeometry>
        </mxCell>
        <mxCell id="r2afQJVxHl89gDdbdh9p-8" value="Visit&amp;nbsp; site" style="text;html=1;strokeColor=none;fillColor=none;align=center;verticalAlign=middle;whiteSpace=wrap;rounded=0;" parent="1" vertex="1">
          <mxGeometry x="120" y="99" width="60" height="30" as="geometry" />
        </mxCell>
        <mxCell id="r2afQJVxHl89gDdbdh9p-10" value="" style="endArrow=block;html=1;rounded=0;endFill=1;entryX=0.005;entryY=0.303;entryDx=0;entryDy=0;entryPerimeter=0;" parent="1" edge="1" target="2wh-ZIs0cIpEIXvG1whk-26" source="2wh-ZIs0cIpEIXvG1whk-68">
          <mxGeometry width="50" height="50" relative="1" as="geometry">
            <mxPoint x="80" y="148" as="sourcePoint" />
            <mxPoint x="269.5" y="148" as="targetPoint" />
          </mxGeometry>
        </mxCell>
        <mxCell id="2wh-ZIs0cIpEIXvG1whk-1" value="Create New/Open Flowchart" style="text;html=1;strokeColor=none;fillColor=none;align=center;verticalAlign=middle;whiteSpace=wrap;rounded=0;" vertex="1" parent="1">
          <mxGeometry x="90" y="126" width="170" height="30" as="geometry" />
        </mxCell>
        <mxCell id="2wh-ZIs0cIpEIXvG1whk-2" value="" style="endArrow=none;html=1;rounded=0;dashed=1;startArrow=block;startFill=1;" edge="1" parent="1">
          <mxGeometry width="50" height="50" relative="1" as="geometry">
            <mxPoint x="275" y="181" as="sourcePoint" />
            <mxPoint x="465" y="181" as="targetPoint" />
          </mxGeometry>
        </mxCell>
        <mxCell id="2wh-ZIs0cIpEIXvG1whk-3" value="Initialize Flowchart" style="text;html=1;strokeColor=none;fillColor=none;align=center;verticalAlign=middle;whiteSpace=wrap;rounded=0;" vertex="1" parent="1">
          <mxGeometry x="313" y="160" width="110" height="30" as="geometry" />
        </mxCell>
        <mxCell id="2wh-ZIs0cIpEIXvG1whk-5" value="Add/Edit Elements" style="text;html=1;strokeColor=none;fillColor=none;align=center;verticalAlign=middle;whiteSpace=wrap;rounded=0;" vertex="1" parent="1">
          <mxGeometry x="158" y="187" width="110" height="30" as="geometry" />
        </mxCell>
        <mxCell id="2wh-ZIs0cIpEIXvG1whk-8" value="" style="endArrow=none;html=1;rounded=0;dashed=1;startArrow=block;startFill=1;" edge="1" parent="1">
          <mxGeometry width="50" height="50" relative="1" as="geometry">
            <mxPoint x="75" y="231" as="sourcePoint" />
            <mxPoint x="465" y="231" as="targetPoint" />
          </mxGeometry>
        </mxCell>
        <mxCell id="2wh-ZIs0cIpEIXvG1whk-10" value="Display Updated Flowchart" style="text;html=1;strokeColor=none;fillColor=none;align=center;verticalAlign=middle;whiteSpace=wrap;rounded=0;" vertex="1" parent="1">
          <mxGeometry x="310" y="209" width="150" height="30" as="geometry" />
        </mxCell>
        <mxCell id="2wh-ZIs0cIpEIXvG1whk-11" value="" style="endArrow=block;html=1;rounded=0;endFill=1;" edge="1" parent="1">
          <mxGeometry width="50" height="50" relative="1" as="geometry">
            <mxPoint x="75" y="256" as="sourcePoint" />
            <mxPoint x="265" y="256" as="targetPoint" />
          </mxGeometry>
        </mxCell>
        <mxCell id="2wh-ZIs0cIpEIXvG1whk-13" value="Select &#39;Covert to Code&#39;" style="text;html=1;strokeColor=none;fillColor=none;align=center;verticalAlign=middle;whiteSpace=wrap;rounded=0;" vertex="1" parent="1">
          <mxGeometry x="89" y="234" width="151" height="30" as="geometry" />
        </mxCell>
        <mxCell id="2wh-ZIs0cIpEIXvG1whk-14" value="" style="endArrow=block;html=1;rounded=0;endFill=1;" edge="1" parent="1" source="2wh-ZIs0cIpEIXvG1whk-69">
          <mxGeometry width="50" height="50" relative="1" as="geometry">
            <mxPoint x="269.92857142857133" y="274" as="sourcePoint" />
            <mxPoint x="664" y="274" as="targetPoint" />
          </mxGeometry>
        </mxCell>
        <mxCell id="2wh-ZIs0cIpEIXvG1whk-15" value="Request Code Generation" style="text;html=1;strokeColor=none;fillColor=none;align=center;verticalAlign=middle;whiteSpace=wrap;rounded=0;" vertex="1" parent="1">
          <mxGeometry x="315" y="252" width="165" height="30" as="geometry" />
        </mxCell>
        <mxCell id="2wh-ZIs0cIpEIXvG1whk-16" value="" style="endArrow=none;html=1;rounded=0;dashed=1;startArrow=block;startFill=1;" edge="1" parent="1" source="2wh-ZIs0cIpEIXvG1whk-69">
          <mxGeometry width="50" height="50" relative="1" as="geometry">
            <mxPoint x="280" y="297" as="sourcePoint" />
            <mxPoint x="660" y="297" as="targetPoint" />
          </mxGeometry>
        </mxCell>
        <mxCell id="2wh-ZIs0cIpEIXvG1whk-17" value="Generated Code" style="text;html=1;strokeColor=none;fillColor=none;align=center;verticalAlign=middle;whiteSpace=wrap;rounded=0;" vertex="1" parent="1">
          <mxGeometry x="561" y="276" width="109" height="30" as="geometry" />
        </mxCell>
        <mxCell id="2wh-ZIs0cIpEIXvG1whk-18" value="" style="endArrow=block;html=1;rounded=0;endFill=1;" edge="1" parent="1">
          <mxGeometry width="50" height="50" relative="1" as="geometry">
            <mxPoint x="75" y="208" as="sourcePoint" />
            <mxPoint x="465" y="208" as="targetPoint" />
          </mxGeometry>
        </mxCell>
        <mxCell id="2wh-ZIs0cIpEIXvG1whk-19" value="" style="endArrow=none;html=1;rounded=0;dashed=1;startArrow=block;startFill=1;" edge="1" parent="1">
          <mxGeometry width="50" height="50" relative="1" as="geometry">
            <mxPoint x="75" y="305" as="sourcePoint" />
            <mxPoint x="265" y="305" as="targetPoint" />
          </mxGeometry>
        </mxCell>
        <mxCell id="2wh-ZIs0cIpEIXvG1whk-22" value="Display Code" style="text;html=1;strokeColor=none;fillColor=none;align=center;verticalAlign=middle;whiteSpace=wrap;rounded=0;" vertex="1" parent="1">
          <mxGeometry x="165" y="283" width="90" height="30" as="geometry" />
        </mxCell>
        <mxCell id="2wh-ZIs0cIpEIXvG1whk-23" value="" style="endArrow=block;html=1;rounded=0;endFill=1;" edge="1" parent="1">
          <mxGeometry width="50" height="50" relative="1" as="geometry">
            <mxPoint x="75" y="333" as="sourcePoint" />
            <mxPoint x="265" y="333" as="targetPoint" />
          </mxGeometry>
        </mxCell>
        <mxCell id="2wh-ZIs0cIpEIXvG1whk-24" value="Select &#39;Code Input&#39;" style="text;html=1;strokeColor=none;fillColor=none;align=center;verticalAlign=middle;whiteSpace=wrap;rounded=0;" vertex="1" parent="1">
          <mxGeometry x="101" y="311" width="109" height="30" as="geometry" />
        </mxCell>
        <mxCell id="2wh-ZIs0cIpEIXvG1whk-25" value="" style="endArrow=block;html=1;rounded=0;endFill=1;" edge="1" parent="1">
          <mxGeometry width="50" height="50" relative="1" as="geometry">
            <mxPoint x="275" y="161" as="sourcePoint" />
            <mxPoint x="465" y="161" as="targetPoint" />
          </mxGeometry>
        </mxCell>
        <mxCell id="2wh-ZIs0cIpEIXvG1whk-26" value="Request Flowchart" style="text;html=1;strokeColor=none;fillColor=none;align=center;verticalAlign=middle;whiteSpace=wrap;rounded=0;" vertex="1" parent="1">
          <mxGeometry x="264" y="139" width="146" height="30" as="geometry" />
        </mxCell>
        <mxCell id="2wh-ZIs0cIpEIXvG1whk-27" value="" style="endArrow=block;html=1;rounded=0;endFill=1;" edge="1" parent="1">
          <mxGeometry width="50" height="50" relative="1" as="geometry">
            <mxPoint x="275" y="343" as="sourcePoint" />
            <mxPoint x="665" y="343" as="targetPoint" />
          </mxGeometry>
        </mxCell>
        <mxCell id="2wh-ZIs0cIpEIXvG1whk-29" value="Request Text Editor" style="text;html=1;strokeColor=none;fillColor=none;align=center;verticalAlign=middle;whiteSpace=wrap;rounded=0;" vertex="1" parent="1">
          <mxGeometry x="280" y="321" width="130" height="30" as="geometry" />
        </mxCell>
        <mxCell id="2wh-ZIs0cIpEIXvG1whk-30" value="" style="endArrow=none;html=1;rounded=0;dashed=1;startArrow=block;startFill=1;" edge="1" parent="1">
          <mxGeometry width="50" height="50" relative="1" as="geometry">
            <mxPoint x="275" y="367" as="sourcePoint" />
            <mxPoint x="665" y="367" as="targetPoint" />
          </mxGeometry>
        </mxCell>
        <mxCell id="2wh-ZIs0cIpEIXvG1whk-31" value="Return Text Editor" style="text;html=1;strokeColor=none;fillColor=none;align=center;verticalAlign=middle;whiteSpace=wrap;rounded=0;" vertex="1" parent="1">
          <mxGeometry x="562" y="346" width="102" height="30" as="geometry" />
        </mxCell>
        <mxCell id="2wh-ZIs0cIpEIXvG1whk-32" value="" style="endArrow=block;html=1;rounded=0;endFill=1;" edge="1" parent="1">
          <mxGeometry width="50" height="50" relative="1" as="geometry">
            <mxPoint x="75" y="382" as="sourcePoint" />
            <mxPoint x="265" y="382" as="targetPoint" />
          </mxGeometry>
        </mxCell>
        <mxCell id="2wh-ZIs0cIpEIXvG1whk-33" value="Input Code" style="text;html=1;strokeColor=none;fillColor=none;align=center;verticalAlign=middle;whiteSpace=wrap;rounded=0;" vertex="1" parent="1">
          <mxGeometry x="80" y="360" width="80" height="30" as="geometry" />
        </mxCell>
        <mxCell id="2wh-ZIs0cIpEIXvG1whk-34" value="Select &#39;Covert to Flowchart&#39;" style="text;html=1;strokeColor=none;fillColor=none;align=center;verticalAlign=middle;whiteSpace=wrap;rounded=0;" vertex="1" parent="1">
          <mxGeometry x="89" y="379" width="151" height="30" as="geometry" />
        </mxCell>
        <mxCell id="2wh-ZIs0cIpEIXvG1whk-35" value="" style="endArrow=block;html=1;rounded=0;endFill=1;" edge="1" parent="1">
          <mxGeometry width="50" height="50" relative="1" as="geometry">
            <mxPoint x="275" y="414" as="sourcePoint" />
            <mxPoint x="665" y="414" as="targetPoint" />
          </mxGeometry>
        </mxCell>
        <mxCell id="2wh-ZIs0cIpEIXvG1whk-36" value="Request Flowchart Generation" style="text;html=1;strokeColor=none;fillColor=none;align=center;verticalAlign=middle;whiteSpace=wrap;rounded=0;" vertex="1" parent="1">
          <mxGeometry x="315" y="393" width="185" height="30" as="geometry" />
        </mxCell>
        <mxCell id="2wh-ZIs0cIpEIXvG1whk-37" value="" style="endArrow=none;html=1;rounded=0;dashed=1;startArrow=block;startFill=1;" edge="1" parent="1">
          <mxGeometry width="50" height="50" relative="1" as="geometry">
            <mxPoint x="275" y="438" as="sourcePoint" />
            <mxPoint x="665" y="438" as="targetPoint" />
          </mxGeometry>
        </mxCell>
        <mxCell id="2wh-ZIs0cIpEIXvG1whk-38" value="" style="endArrow=block;html=1;rounded=0;endFill=1;" edge="1" parent="1">
          <mxGeometry width="50" height="50" relative="1" as="geometry">
            <mxPoint x="75" y="401" as="sourcePoint" />
            <mxPoint x="265" y="401" as="targetPoint" />
          </mxGeometry>
        </mxCell>
        <mxCell id="2wh-ZIs0cIpEIXvG1whk-39" value="Generate Flowchart" style="text;html=1;strokeColor=none;fillColor=none;align=center;verticalAlign=middle;whiteSpace=wrap;rounded=0;" vertex="1" parent="1">
          <mxGeometry x="541" y="417" width="120" height="30" as="geometry" />
        </mxCell>
        <mxCell id="2wh-ZIs0cIpEIXvG1whk-40" value="" style="endArrow=none;html=1;rounded=0;dashed=1;startArrow=block;startFill=1;" edge="1" parent="1">
          <mxGeometry width="50" height="50" relative="1" as="geometry">
            <mxPoint x="75" y="451" as="sourcePoint" />
            <mxPoint x="265" y="451" as="targetPoint" />
          </mxGeometry>
        </mxCell>
        <mxCell id="2wh-ZIs0cIpEIXvG1whk-41" value="Display Flowchart" style="text;html=1;strokeColor=none;fillColor=none;align=center;verticalAlign=middle;whiteSpace=wrap;rounded=0;" vertex="1" parent="1">
          <mxGeometry x="150" y="429" width="106" height="30" as="geometry" />
        </mxCell>
        <mxCell id="2wh-ZIs0cIpEIXvG1whk-42" value="" style="endArrow=block;html=1;rounded=0;endFill=1;" edge="1" parent="1">
          <mxGeometry width="50" height="50" relative="1" as="geometry">
            <mxPoint x="75" y="480" as="sourcePoint" />
            <mxPoint x="265" y="480" as="targetPoint" />
          </mxGeometry>
        </mxCell>
        <mxCell id="2wh-ZIs0cIpEIXvG1whk-43" value="Select &#39;Execute Program&#39;" style="text;html=1;strokeColor=none;fillColor=none;align=center;verticalAlign=middle;whiteSpace=wrap;rounded=0;" vertex="1" parent="1">
          <mxGeometry x="75" y="458" width="140" height="30" as="geometry" />
        </mxCell>
        <mxCell id="2wh-ZIs0cIpEIXvG1whk-44" value="" style="endArrow=block;html=1;rounded=0;endFill=1;" edge="1" parent="1">
          <mxGeometry width="50" height="50" relative="1" as="geometry">
            <mxPoint x="275" y="490" as="sourcePoint" />
            <mxPoint x="865" y="490" as="targetPoint" />
          </mxGeometry>
        </mxCell>
        <mxCell id="2wh-ZIs0cIpEIXvG1whk-45" value="Request Execution" style="text;html=1;strokeColor=none;fillColor=none;align=center;verticalAlign=middle;whiteSpace=wrap;rounded=0;" vertex="1" parent="1">
          <mxGeometry x="276" y="468" width="110" height="30" as="geometry" />
        </mxCell>
        <mxCell id="2wh-ZIs0cIpEIXvG1whk-46" value="" style="endArrow=block;html=1;rounded=0;endFill=1;" edge="1" parent="1">
          <mxGeometry width="50" height="50" relative="1" as="geometry">
            <mxPoint x="875" y="497.5" as="sourcePoint" />
            <mxPoint x="1065" y="497.5" as="targetPoint" />
          </mxGeometry>
        </mxCell>
        <mxCell id="2wh-ZIs0cIpEIXvG1whk-47" value="Request Memory Map" style="text;html=1;strokeColor=none;fillColor=none;align=center;verticalAlign=middle;whiteSpace=wrap;rounded=0;" vertex="1" parent="1">
          <mxGeometry x="875" y="476" width="130" height="30" as="geometry" />
        </mxCell>
        <mxCell id="2wh-ZIs0cIpEIXvG1whk-48" value="" style="endArrow=none;html=1;rounded=0;dashed=1;startArrow=block;startFill=1;" edge="1" parent="1">
          <mxGeometry width="50" height="50" relative="1" as="geometry">
            <mxPoint x="875" y="526.5" as="sourcePoint" />
            <mxPoint x="1065" y="526.5" as="targetPoint" />
          </mxGeometry>
        </mxCell>
        <mxCell id="2wh-ZIs0cIpEIXvG1whk-49" value="Return Memory Map" style="text;html=1;strokeColor=none;fillColor=none;align=center;verticalAlign=middle;whiteSpace=wrap;rounded=0;" vertex="1" parent="1">
          <mxGeometry x="949" y="504" width="120" height="30" as="geometry" />
        </mxCell>
        <mxCell id="2wh-ZIs0cIpEIXvG1whk-50" value="" style="endArrow=none;html=1;rounded=0;dashed=1;startArrow=block;startFill=1;" edge="1" parent="1">
          <mxGeometry width="50" height="50" relative="1" as="geometry">
            <mxPoint x="275" y="536" as="sourcePoint" />
            <mxPoint x="865" y="536" as="targetPoint" />
          </mxGeometry>
        </mxCell>
        <mxCell id="2wh-ZIs0cIpEIXvG1whk-51" value="Return Execution And Memory Map" style="text;html=1;strokeColor=none;fillColor=none;align=center;verticalAlign=middle;whiteSpace=wrap;rounded=0;" vertex="1" parent="1">
          <mxGeometry x="630" y="514" width="229" height="30" as="geometry" />
        </mxCell>
        <mxCell id="2wh-ZIs0cIpEIXvG1whk-52" value="" style="endArrow=none;html=1;rounded=0;dashed=1;startArrow=block;startFill=1;" edge="1" parent="1">
          <mxGeometry width="50" height="50" relative="1" as="geometry">
            <mxPoint x="75" y="550" as="sourcePoint" />
            <mxPoint x="265" y="550" as="targetPoint" />
          </mxGeometry>
        </mxCell>
        <mxCell id="2wh-ZIs0cIpEIXvG1whk-53" value="Display Execution and Memory" style="text;html=1;strokeColor=none;fillColor=none;align=center;verticalAlign=middle;whiteSpace=wrap;rounded=0;" vertex="1" parent="1">
          <mxGeometry x="146" y="521" width="115" height="30" as="geometry" />
        </mxCell>
        <mxCell id="2wh-ZIs0cIpEIXvG1whk-54" value="" style="endArrow=block;html=1;rounded=0;endFill=1;" edge="1" parent="1">
          <mxGeometry width="50" height="50" relative="1" as="geometry">
            <mxPoint x="75" y="590" as="sourcePoint" />
            <mxPoint x="265" y="590" as="targetPoint" />
          </mxGeometry>
        </mxCell>
        <mxCell id="2wh-ZIs0cIpEIXvG1whk-55" value="Select &#39;Export&#39;" style="text;html=1;strokeColor=none;fillColor=none;align=center;verticalAlign=middle;whiteSpace=wrap;rounded=0;" vertex="1" parent="1">
          <mxGeometry x="87" y="567" width="116" height="30" as="geometry" />
        </mxCell>
        <mxCell id="2wh-ZIs0cIpEIXvG1whk-56" value="" style="endArrow=block;html=1;rounded=0;endFill=1;" edge="1" parent="1">
          <mxGeometry width="50" height="50" relative="1" as="geometry">
            <mxPoint x="275" y="599" as="sourcePoint" />
            <mxPoint x="1265" y="599" as="targetPoint" />
          </mxGeometry>
        </mxCell>
        <mxCell id="2wh-ZIs0cIpEIXvG1whk-57" value="Request File Export" style="text;html=1;strokeColor=none;fillColor=none;align=center;verticalAlign=middle;whiteSpace=wrap;rounded=0;" vertex="1" parent="1">
          <mxGeometry x="284" y="577" width="130" height="30" as="geometry" />
        </mxCell>
        <mxCell id="2wh-ZIs0cIpEIXvG1whk-58" value="" style="endArrow=none;html=1;rounded=0;dashed=1;startArrow=block;startFill=1;" edge="1" parent="1" target="2wh-ZIs0cIpEIXvG1whk-62">
          <mxGeometry width="50" height="50" relative="1" as="geometry">
            <mxPoint x="275" y="635" as="sourcePoint" />
            <mxPoint x="1265" y="635" as="targetPoint" />
          </mxGeometry>
        </mxCell>
        <mxCell id="2wh-ZIs0cIpEIXvG1whk-59" value="Return Files" style="text;html=1;strokeColor=none;fillColor=none;align=center;verticalAlign=middle;whiteSpace=wrap;rounded=0;" vertex="1" parent="1">
          <mxGeometry x="1053" y="613" width="170" height="30" as="geometry" />
        </mxCell>
        <mxCell id="2wh-ZIs0cIpEIXvG1whk-60" value="" style="endArrow=none;html=1;rounded=0;dashed=1;startArrow=block;startFill=1;" edge="1" parent="1">
          <mxGeometry width="50" height="50" relative="1" as="geometry">
            <mxPoint x="75" y="651" as="sourcePoint" />
            <mxPoint x="265" y="651" as="targetPoint" />
          </mxGeometry>
        </mxCell>
        <mxCell id="2wh-ZIs0cIpEIXvG1whk-61" value="File Exported" style="text;html=1;strokeColor=none;fillColor=none;align=center;verticalAlign=middle;whiteSpace=wrap;rounded=0;" vertex="1" parent="1">
          <mxGeometry x="128" y="629" width="110" height="30" as="geometry" />
        </mxCell>
      </root>
    </mxGraphModel>
  </diagram>
</mxfile>
